<svg preserveAspectRatio="none" overflow="visible" style="display: block;" width="25" height="1" viewBox="0 0 25 1" fill="none" xmlns="http://www.w3.org/2000/svg">
<path id="Vector 48" d="M0 0.5V1H0.480769V0.5V0H0V0.5ZM1.44231 0.5V1H2.40385V0.5V0H1.44231V0.5ZM3.36538 0.5V1H4.32692V0.5V0H3.36538V0.5ZM5.28846 0.5V1H6.25V0.5V0H5.28846V0.5ZM7.21154 0.5V1H8.17308V0.5V0H7.21154V0.5ZM9.13461 0.5V1H10.0962V0.5V0H9.13461V0.5ZM11.0577 0.5V1H12.0192V0.5V0H11.0577V0.5ZM12.9808 0.5V1H13.9423V0.5V0H12.9808V0.5ZM14.9038 0.5V1H15.8654V0.5V0H14.9038V0.5ZM16.8269 0.5V1H17.7885V0.5V0H16.8269V0.5ZM18.75 0.5V1H19.7115V0.5V0H18.75V0.5ZM20.6731 0.5V1H21.6346V0.5V0H20.6731V0.5ZM22.5962 0.5V1H23.5577V0.5V0H22.5962V0.5ZM24.5192 0.5V1H25V0.5V0H24.5192V0.5Z" fill="#768CA6"/>
</svg>
